<svg width="128" height="128" viewBox="0 0 128 128" fill="none" xmlns="http://www.w3.org/2000/svg">
    <rect width="128" height="128" rx="16" fill="#0969da"/>
    <g opacity="0.1">
        <circle cx="40" cy="40" r="8" fill="white"/>
        <circle cx="88" cy="50" r="6" fill="white"/>
        <circle cx="50" cy="95" r="7" fill="white"/>
    </g>
    <path d="M64 32C47.43 32 34 45.43 34 62C34 78.57 47.43 92 64 92C80.57 92 94 78.57 94 62C94 45.43 80.57 32 64 32ZM64 88C49.64 88 38 76.36 38 62C38 47.64 49.64 36 64 36C78.36 36 90 47.64 90 62C90 76.36 78.36 88 64 88Z" fill="white"/>
    <circle cx="64" cy="62" r="12" fill="white" opacity="0.8"/>
    <circle cx="64" cy="62" r="8" fill="#0969da"/>
</svg>